<svg width="21" height="21" viewBox="0 0 21 21" fill="none" xmlns="http://www.w3.org/2000/svg">
<path d="M13.0004 3.40039C13.0004 4.19604 12.6843 4.9591 12.1217 5.52171C11.5591 6.08432 10.796 6.40039 10.0004 6.40039C9.20474 6.40039 8.44168 6.08432 7.87907 5.52171C7.31646 4.9591 7.00039 4.19604 7.00039 3.40039C7.00039 2.60474 7.31646 1.84168 7.87907 1.27907C8.44168 0.716461 9.20474 0.400391 10.0004 0.400391C10.796 0.400391 11.5591 0.716461 12.1217 1.27907C12.6843 1.84168 13.0004 2.60474 13.0004 3.40039ZM19.0004 4.00039C19.0004 4.63691 18.7475 5.24736 18.2974 5.69745C17.8474 6.14753 17.2369 6.40039 16.6004 6.40039C15.9639 6.40039 15.3534 6.14753 14.9033 5.69745C14.4532 5.24736 14.2004 4.63691 14.2004 4.00039C14.2004 3.36387 14.4532 2.75342 14.9033 2.30333C15.3534 1.85325 15.9639 1.60039 16.6004 1.60039C17.2369 1.60039 17.8474 1.85325 18.2974 2.30333C18.7475 2.75342 19.0004 3.36387 19.0004 4.00039ZM3.40039 6.40039C4.03691 6.40039 4.64736 6.14753 5.09745 5.69745C5.54753 5.24736 5.80039 4.63691 5.80039 4.00039C5.80039 3.36387 5.54753 2.75342 5.09745 2.30333C4.64736 1.85325 4.03691 1.60039 3.40039 1.60039C2.76387 1.60039 2.15342 1.85325 1.70333 2.30333C1.25325 2.75342 1.00039 3.36387 1.00039 4.00039C1.00039 4.63691 1.25325 5.24736 1.70333 5.69745C2.15342 6.14753 2.76387 6.40039 3.40039 6.40039ZM5.20039 9.10039C5.20039 8.27239 5.87239 7.60039 6.70039 7.60039H13.3004C14.0264 7.60039 14.6324 8.11639 14.7704 8.80039H14.2004C13.5 8.8003 12.8217 9.04526 12.283 9.4928C11.7443 9.94035 11.3791 10.5623 11.2508 11.2508C10.5623 11.3791 9.94035 11.7443 9.4928 12.283C9.04526 12.8217 8.8003 13.5 8.80039 14.2004V19.0004C8.80039 19.1564 8.81239 19.3088 8.83519 19.4576C7.79699 19.1974 6.87547 18.5978 6.21695 17.754C5.55842 16.9103 5.20064 15.8707 5.20039 14.8004V9.10039ZM19.55 11.2508L19.6004 11.2604V9.10039C19.6004 8.27239 18.9284 7.60039 18.1004 7.60039H15.5456C15.7808 7.95079 15.9356 8.35999 15.9836 8.80039H16.6004C17.3008 8.8003 17.9791 9.04526 18.5178 9.4928C19.0565 9.94035 19.4217 10.5623 19.55 11.2508ZM4.00039 9.10039C4.00039 8.54479 4.16839 8.02999 4.45519 7.60039H1.90039C1.07239 7.60039 0.400391 8.27239 0.400391 9.10039V13.6004C0.400335 14.1141 0.510237 14.6219 0.722713 15.0897C0.935188 15.5574 1.24532 15.9743 1.63226 16.3122C2.0192 16.6502 2.47399 16.9014 2.96607 17.049C3.45815 17.1966 3.97613 17.2372 4.48519 17.168C4.16413 16.42 3.99916 15.6144 4.00039 14.8004V9.10039ZM12.4004 12.4004V11.8004C12.4004 11.323 12.59 10.8652 12.9276 10.5276C13.2652 10.19 13.723 10.0004 14.2004 10.0004H16.6004C17.0778 10.0004 17.5356 10.19 17.8732 10.5276C18.2107 10.8652 18.4004 11.323 18.4004 11.8004V12.4004H19.0004C19.4778 12.4004 19.9356 12.59 20.2732 12.9276C20.6107 13.2652 20.8004 13.723 20.8004 14.2004V16.0004H18.4004V15.4004C18.4004 15.2413 18.3372 15.0886 18.2247 14.9761C18.1121 14.8636 17.9595 14.8004 17.8004 14.8004C17.6413 14.8004 17.4886 14.8636 17.3761 14.9761C17.2636 15.0886 17.2004 15.2413 17.2004 15.4004V16.0004H13.6004V15.4004C13.6004 15.2413 13.5372 15.0886 13.4247 14.9761C13.3121 14.8636 13.1595 14.8004 13.0004 14.8004C12.8413 14.8004 12.6886 14.8636 12.5761 14.9761C12.4636 15.0886 12.4004 15.2413 12.4004 15.4004V16.0004H10.0004V14.2004C10.0004 13.723 10.19 13.2652 10.5276 12.9276C10.8652 12.59 11.323 12.4004 11.8004 12.4004H12.4004ZM13.6004 11.8004V12.4004H17.2004V11.8004C17.2004 11.6413 17.1372 11.4886 17.0247 11.3761C16.9121 11.2636 16.7595 11.2004 16.6004 11.2004H14.2004C14.0413 11.2004 13.8886 11.2636 13.7761 11.3761C13.6636 11.4886 13.6004 11.6413 13.6004 11.8004ZM18.4004 17.8004V17.2004H20.8004V19.0004C20.8004 19.4778 20.6107 19.9356 20.2732 20.2732C19.9356 20.6107 19.4778 20.8004 19.0004 20.8004H11.8004C11.323 20.8004 10.8652 20.6107 10.5276 20.2732C10.19 19.9356 10.0004 19.4778 10.0004 19.0004V17.2004H12.4004V17.8004C12.4004 17.9595 12.4636 18.1121 12.5761 18.2247C12.6886 18.3372 12.8413 18.4004 13.0004 18.4004C13.1595 18.4004 13.3121 18.3372 13.4247 18.2247C13.5372 18.1121 13.6004 17.9595 13.6004 17.8004V17.2004H17.2004V17.8004C17.2004 17.9595 17.2636 18.1121 17.3761 18.2247C17.4886 18.3372 17.6413 18.4004 17.8004 18.4004C17.9595 18.4004 18.1121 18.3372 18.2247 18.2247C18.3372 18.1121 18.4004 17.9595 18.4004 17.8004Z" fill="#BFC0C2"/>
</svg>
